<?xml version="1.0" encoding="utf-8"?>
<!-- Generator: Adobe Illustrator 25.4.1, SVG Export Plug-In . SVG Version: 6.00 Build 0)  -->
<svg version="1.1" id="Layer_1" xmlns="http://www.w3.org/2000/svg" xmlns:xlink="http://www.w3.org/1999/xlink" x="0px" y="0px"
	 width="467.3px" height="92px" viewBox="0 0 467.3 92" style="enable-background:new 0 0 467.3 92;" xml:space="preserve">
<style type="text/css">
	.st0{fill-rule:evenodd;clip-rule:evenodd;fill:#D71920;}
</style>
<path class="st0" d="M374.9,2.7c0,1.8,1.4,2.5,2.5,2.8c1.1,0.4,2.7,0.6,4.7,1.1c1.6,0.5,3.2,1.7,5,4.2c0,0,20.9,34.9,24.7,42.1
	c0.3,0.5,0.3,1.2,0.3,1.5v23.3c0,3.1-0.8,4.7-1.7,5.6c-0.4,0.5-0.9,0.8-1.4,1c-0.5,0.3-1,0.4-1.4,0.6c-1.6,0.6-2.9,1-3.8,1.4
	c-0.9,0.4-2.1,1.1-2.1,2.5c0,1.7,1.3,2.8,2.9,2.8h32.6c1.5,0,2.9-0.9,2.9-2.7c0-0.7-0.3-1.3-0.8-1.6c-0.4-0.4-0.9-0.6-1.4-0.8
	c-0.9-0.4-2.2-0.8-3.8-1.5c-0.4-0.1-0.9-0.3-1.4-0.6c-0.5-0.2-0.9-0.5-1.3-1c-0.8-0.9-1.6-2.5-1.6-5.7V54.3c0-0.3,0-0.8,0.4-1.4
	c4-7.5,24-40.1,25.1-41.9c1.9-2.5,4.1-4,5.6-4.4c0.9-0.3,1.7-0.5,2.4-0.7s1.4-0.4,1.9-0.7c1-0.5,2.1-1.2,2.1-2.7s-1.6-2.4-2.7-2.4
	h-24.3h-0.9c-0.3,0-0.8,0.1-1.2,0.2c-1,0.3-1.8,1.1-1.7,2.5c0,1.2,0.7,1.9,1.6,2.4c0.4,0.2,0.8,0.4,1.3,0.6l1.6,0.6
	c1.8,0.6,2.4,1.5,1.5,3.2C442.4,9.7,426.3,37,424,40.1c-1.8-2.9-17.4-30.8-17.4-30.8c-1.1-2.1,0.2-2.8,1.6-3.2
	c0.6-0.2,1.1-0.3,1.6-0.4c0.5-0.1,1-0.2,1.4-0.4c1-0.4,1.7-1.1,1.7-2.4c0-1.3-0.7-2.1-1.6-2.5C410.5,0,409.7,0,409.1,0h-31.3
	C376.5,0.3,374.9,1.1,374.9,2.7z M398.1,89.3c0-1.6-1.3-2.2-2.2-2.6s-2.2-0.7-3.8-1.4c-1-0.4-1.8-1.3-2.5-2.5
	c-0.7-1.1-1.2-2.3-1.6-3c0,0-33.9-75.3-35.4-78.3c-0.9-1.8-5.2-2-6.1,0.2c-1,2.3-29.8,68.3-34,78.1c-0.1,0.2-2,4.6-4,5.5
	c-1.5,0.6-2.8,1-3.7,1.3c-1,0.4-2.2,1-2.2,2.6c0,2,1.6,2.5,2.9,2.5h24.2c1,0,2.9-0.1,2.9-2.3c0-1.2-0.7-2-1.7-2.4
	c-0.9-0.4-2.2-0.8-3.9-1.2c-0.8-0.2-1.9-0.5-2.6-1c-0.7-0.4-0.7-0.7-0.6-1.2l0.1-0.4v0.1l0.2-0.6l0.8-2.1c0.7-1.7,1.6-4,2.5-6.3
	c1.9-4.7,3.9-9.4,4.3-10.1l0.6-1.1c0.1,0,0.3-0.1,0.6-0.1h27.8c0.2,0,0.4,0.1,0.6,0.3c0.3,0.3,0.5,0.6,0.7,1.1
	c0.4,0.7,2.4,5.4,4.4,10l2.7,6.2l0.9,2l0.2,0.5c-0.1,0.7-0.4,1.1-0.9,1.4c-0.3,0.2-0.7,0.3-1.1,0.5c-0.4,0.1-0.9,0.2-1.3,0.3
	c-0.9,0.2-1.6,0.4-2.3,0.6s-1.3,0.4-1.7,0.6c-1.1,0.5-1.9,1.3-1.9,2.7c0,2,1.6,2.4,2.7,2.3h31.5C396.4,91.8,398.1,91.3,398.1,89.3z
	 M336.4,52.7c1.3-3.7,10.1-22.7,10.4-23.3c1,2.2,8.5,19.3,10.2,23.4L336.4,52.7z M300.3,90.1c1.8-4.5,6.3-19.8,7.2-22.2
	c0.5-1.4-0.6-2.7-1.7-3c-1.4-0.4-2.8,0.5-3.6,2.2c-3.1,6.8-4.5,8.6-9.1,11.4c-8,4.8-20.6,4.7-27.2,4.2l0,0c-2.7-0.2-4.4-0.5-4.5-0.5
	c-0.9,0-1.6-0.7-1.6-1.1V12.7c0.2-3.5,2.9-5.1,4.2-5.5c0.6-0.2,1.2-0.4,1.8-0.5l0,0c0.9-0.3,1.6-0.5,2.2-0.8c1-0.4,2.3-1.2,2.3-2.8
	c0-1.7-1.2-2.8-2.8-2.8h-32.9c-1.6-0.1-2.9,1.1-2.9,2.8c0,1.5,1.1,2.3,2.1,2.8c0.5,0.2,1.1,0.4,1.8,0.7l2.1,0.7
	c1.4,0.4,4.3,2,4.3,5.8v66.2c0,3.8-3,5.4-4.4,5.8l-2.1,0.7c-0.7,0.2-1.3,0.5-1.8,0.7c-1,0.5-2.1,1.3-2.1,2.8c0,1.7,1.3,2.7,2.8,2.7
	h31.3v-1.5V92h31.7C298.8,91.7,299.8,91.5,300.3,90.1z M37.6,89.1c0-1.5-1.1-2.3-2.1-2.8c-0.5-0.2-1.1-0.4-1.8-0.7l-2.1-0.7
	c-1.3-0.4-3.8-1.8-4-5.1V51.1c0.9-0.2,6.6-0.3,7.1,0.3c4.9,6.4,13.1,17,29.2,38.8c0.4,0.6,1.3,1.5,2.7,1.5h20.2c0.5,0,1.3,0,1.9-0.3
	c0.8-0.4,1.1-1.2,1.1-2.1c-0.1-1.3-1.1-1.9-2-2.3c-0.9-0.3-2.2-0.7-4-1.4c-5-1.8-8-5.6-10.8-9.4c0,0-17.1-23.8-19.5-27.2
	c0.2-0.1,0.5-0.3,0.9-0.4l1.9-0.9c1.4-0.7,3.1-1.5,4.9-2.6c6.2-3.6,10.7-9.2,11-18.1C72.9,6.9,54,0.2,45.4,0.2H2.9
	C1.3,0.1,0,1.3,0,3c0,1.5,1.1,2.3,2.1,2.8C2.6,6,3.2,6.2,3.9,6.5L6,7.2c1.3,0.4,4,1.9,4,5.7v66.3c0,3.8-2.7,5.3-4,5.7l-2.1,0.7
	c-0.7,0.2-1.3,0.4-1.8,0.7c-1,0.5-2.1,1.3-2.1,2.8c0,1.7,1.2,2.8,2.8,2.8h32.1C36.4,91.9,37.6,90.7,37.6,89.1z M28.3,42.7
	c-0.2,0-0.4-0.1-0.7-0.5l0.2-32c0.3-0.2,0.7-0.4,1.1-0.5c0.2-0.1,6.1-1.2,12,0.3c5.7,1.5,11.3,5.4,11.5,15.5
	c0.2,10.1-5.3,14.4-11.1,16.2C35.3,43.5,29,42.8,28.3,42.7z M161.5,90.1c1.8-4.6,6.4-19.3,7.1-21.9c0.9-3.4-3.8-4.2-5.2-1
	c-3.4,7.7-4.7,10.4-9.3,12.5c-8.4,3-34.3,2.5-34.4,2.5c-0.5,0-0.9-0.1-1.1-0.6V47.5h20.7c3.1,0,6.8,0.8,8.1,8.4l0.2,1.1
	c0.1,0.4,0.2,0.8,0.3,1.2c0.1,0.4,0.3,0.8,0.6,1.1c0.3,0.4,0.8,0.7,1.5,0.7c2,0,3.2-1.7,3.2-3.4V26.5c0-1.4-1.9-2.2-2.7-2.2
	c-1.3,0-1.9,0.9-2.3,1.7c-0.1,0.4-0.3,0.8-0.4,1.3l-0.4,1.5c-2,7.8-5.1,9.7-8.4,9.7h-19.8l-0.7-0.2V10.1V9.6c0.2,0,0.4,0,0.6,0h24
	c3.6,0,6.1,1,7.3,1.8c1.6,1.1,2.7,2.3,3.7,3.7s1.8,3,2.7,4.5c0.3,0.5,3.6,2.2,4-0.7c0,0,0-0.2,0-0.5v-0.5l-0.2-1.6l-0.5-4.8
	c-0.4-3.5-0.8-7.2-0.8-8c0-1.9-1.4-2.7-2.6-3c-0.6-0.1-1.2-0.2-1.7-0.2s-0.9,0-1.2,0h-62c-1.7-0.1-2.9,1.2-2.9,2.9
	c0,0.7,0.4,1.3,0.8,1.7s1,0.7,1.5,0.9c1,0.4,2.5,0.8,4.2,1.2c2.5,0.6,5.4,2,5.4,5.2v67.1c0,3.8-2.7,5.3-4,5.7l-2.1,0.7
	c-0.7,0.2-1.3,0.4-1.8,0.7c-1,0.5-2.1,1.3-2.1,2.8c0,1.7,1.2,2.8,2.8,2.8h65.2C160,91.7,161,91.5,161.5,90.1z M203.3,89.1
	c0-1.5-1.1-2.3-2.1-2.8c-0.5-0.2-1.1-0.4-1.8-0.7l-2.1-0.7c-1.3-0.4-3.9-1.9-4-5.5V50.7c15.1,2.2,42.7,0.7,42.7-25
	c0-20.6-18.2-25.6-26.3-25.6h-41.6c-1.6-0.1-2.9,1.1-2.9,2.8c0,1.5,1.1,2.3,2.1,2.8c0.5,0.2,1.1,0.4,1.8,0.7l2.1,0.7
	c1.3,0.4,4,1.9,4.2,5.3v67.2c-0.2,3.5-2.7,5-4,5.4l-2.1,0.7c-0.7,0.2-1.3,0.4-1.8,0.7c-1,0.5-2.1,1.3-2.1,2.8c0,1.7,1.4,2.8,2.9,2.8
	h32.1C202,91.9,203.3,90.7,203.3,89.1z M194.7,41.7c-0.6-0.1-1.1-0.2-1.4-0.4V13.5c0-0.4,0.1-0.9,0.1-1.3l0.1-0.6
	c0.3-0.7,1.2-1.4,2.6-1.9c7.1-2.6,21.2,2.8,21,16.6C216.8,43.2,200.8,42.8,194.7,41.7z"/>
</svg>
